<svg width="41" height="41" viewBox="0 0 41 41" fill="none" xmlns="http://www.w3.org/2000/svg">
    <rect width="40.1794" height="40.1794" rx="9.49694" fill="#5865F2"/>
    <path d="M27.9373 13.0367C26.4724 12.3439 24.906 11.8404 23.2683 11.5537C23.0672 11.9212 22.8322 12.4156 22.6702 12.8088C20.9294 12.5442 19.2046 12.5442 17.4958 12.8088C17.3338 12.4156 17.0935 11.9212 16.8906 11.5537C15.2512 11.8404 13.683 12.3458 12.218 13.0404C9.26321 17.5536 8.4622 21.9547 8.86271 26.2933C10.8225 27.7726 12.7218 28.6712 14.589 29.2592C15.05 28.6179 15.4612 27.9361 15.8154 27.2176C15.1408 26.9585 14.4947 26.6388 13.8841 26.2676C14.0461 26.1463 14.2045 26.0195 14.3576 25.889C18.0814 27.6495 22.1274 27.6495 25.8066 25.889C25.9615 26.0195 26.1199 26.1463 26.2801 26.2676C25.6678 26.6406 25.0199 26.9604 24.3453 27.2195C24.6995 27.9361 25.1089 28.6198 25.5717 29.2611C27.4407 28.673 29.3417 27.7744 31.3015 26.2933C31.7715 21.2637 30.4988 16.903 27.9373 13.0367ZM16.3227 23.6251C15.2049 23.6251 14.2882 22.5703 14.2882 21.2858C14.2882 20.0013 15.1853 18.9447 16.3227 18.9447C17.4602 18.9447 18.3769 19.9994 18.3573 21.2858C18.3591 22.5703 17.4602 23.6251 16.3227 23.6251ZM23.8415 23.6251C22.7237 23.6251 21.807 22.5703 21.807 21.2858C21.807 20.0013 22.7041 18.9447 23.8415 18.9447C24.9789 18.9447 25.8956 19.9994 25.8761 21.2858C25.8761 22.5703 24.9789 23.6251 23.8415 23.6251Z" fill="white"/>
</svg>
