<svg xmlns="http://www.w3.org/2000/svg" aria-label="LinkedIn" role="img" viewBox="0 0 382 382" width="41" height="41" style="border-radius: 9.49694px;">
  <rect width="382" height="382" fill="#0077B7" rx="9.49694"/>
  <path fill="#fff" d="M118.207 329.844c0 5.554-4.502 10.056-10.056 10.056H65.345c-5.554 0-10.056-4.502-10.056-10.056V150.403c0-5.554 4.502-10.056 10.056-10.056h42.806c5.554 0 10.056 4.502 10.056 10.056V329.844zM86.748 123.432c-22.459 0-40.666-18.207-40.666-40.666s18.207-40.666 40.666-40.666 40.666 18.207 40.666 40.666-18.207 40.666-40.666 40.666zM341.91 330.654c0 5.106-4.14 9.246-9.246 9.246H286.73c-5.106 0-9.246-4.14-9.246-9.246v-84.168c0-12.556 3.683-55.021-32.813-55.021-28.309 0-34.051 29.066-35.204 42.11v97.079c0 5.106-4.139 9.246-9.246 9.246h-44.426c-5.106 0-9.246-4.14-9.246-9.246V149.593c0-5.106 4.14-9.246 9.246-9.246h44.426c5.106 0 9.246 4.14 9.246 9.246v15.655c10.497-15.753 26.097-27.912 59.312-27.912 73.552 0 73.131 68.716 73.131 106.472v87.846z"/>
</svg>