<svg width="41" height="41" viewBox="0 0 41 41" fill="none" xmlns="http://www.w3.org/2000/svg">
    <rect width="40.1794" height="40.1794" rx="9.49694" fill="#40B3E0"/>
    <path d="M31.413 10.9521L27.6001 29.831C27.6001 29.831 27.0669 31.1402 25.6004 30.5118L16.8017 23.8872L13.6023 22.3686L8.21651 20.588C8.21651 20.588 7.38998 20.3001 7.30992 19.6716C7.22987 19.0432 8.2432 18.7029 8.2432 18.7029L29.6531 10.4548C29.6531 10.4548 31.4129 9.69556 31.4129 10.9524" fill="white"/>
    <path d="M20.6321 26.6683L16.694 29.1481C16.694 29.1481 16.0719 29.5867 16.0719 28.8562L16.8024 23.0119" fill="#B5CFE4"/>
    <path d="M16.3069 29.2211C16.3069 29.2211 16.0599 29.1978 15.7519 28.2136C15.4445 27.2297 13.8801 22.0509 13.8801 22.0509L26.3168 14.0755C26.3168 14.0755 27.0349 13.6353 27.0093 14.0755C27.0093 14.0755 27.1374 14.1533 26.7526 14.5158C26.3682 14.8784 16.983 23.3975 16.983 23.3975" fill="#D2E5F1"/>
</svg>
